<svg xmlns="http://www.w3.org/2000/svg" aria-hidden="true" style="position:absolute;width:0;height:0;overflow:hidden">
  <defs>
<symbol id="icon-chevron-left" viewBox="0 0 32 32">
<path stroke-linejoin="round" stroke-linecap="round" stroke-miterlimit="4" stroke-width="1.7778" d="M12 24l8-8-8-8"></path>
</symbol>
<symbol id="icon-chevron-left1" viewBox="0 0 32 32">
<path stroke-linejoin="round" stroke-linecap="round" stroke-miterlimit="4" stroke-width="1.7778" d="M20 24l-8-8 8-8"></path>
</symbol>
<symbol id="icon-facebook" viewBox="0 0 32 32">
<path d="M19.52 4.64h0.96v3.6h-1.2c-0.48 0-0.96 0-1.2 0.24s-0.24 0.48-0.24 1.040v1.28h2.64v3.040h-2.64v13.2h-4.080v-13.28h-2.16v-3.040h2.16v-1.040c0-1.76 0.24-3.040 0.72-3.6 0.72-1.040 2.16-1.52 4.32-1.52 0.24 0.080 0.48 0.080 0.72 0.080z"></path>
</symbol>
<symbol id="icon-gg_menu-left" viewBox="0 0 32 32">
<path d="M2.667 7.993c0-0.733 0.595-1.327 1.327-1.327h10.68c0.733 0 1.327 0.594 1.327 1.327s-0.594 1.327-1.327 1.327h-10.68c-0.733 0-1.327-0.594-1.327-1.327v0zM2.667 16c0-0.733 0.595-1.327 1.327-1.327h24.013c0.733 0 1.327 0.594 1.327 1.327s-0.594 1.327-1.327 1.327h-24.013c-0.733 0-1.327-0.594-1.327-1.327v0zM3.993 22.68c-0.733 0-1.327 0.594-1.327 1.327s0.594 1.327 1.327 1.327h16.013c0.733 0 1.327-0.594 1.327-1.327s-0.594-1.327-1.327-1.327h-16.013z"></path>
</symbol>
<symbol id="icon-heart" viewBox="0 0 32 32">
<path stroke-linejoin="round" stroke-linecap="round" stroke-miterlimit="4" stroke-width="2.6667" d="M27.787 6.147c-1.327-1.328-3.161-2.149-5.187-2.149s-3.859 0.821-5.187 2.149l-1.413 1.413-1.413-1.413c-1.327-1.327-3.161-2.148-5.187-2.148-4.051 0-7.335 3.284-7.335 7.335 0 2.026 0.821 3.859 2.148 5.187l11.787 11.787 11.787-11.787c1.328-1.327 2.15-3.161 2.15-5.187s-0.822-3.86-2.15-5.187l-0-0z"></path>
</symbol>
<symbol id="icon-instagram" viewBox="0 0 32 32">
<path d="M28.718 10.755c-0.015-1.134-0.233-2.213-0.617-3.208l0.021 0.063c-0.682-1.722-2.021-3.059-3.7-3.722l-0.044-0.015c-0.921-0.355-1.985-0.571-3.098-0.594l-0.010-0c-1.367-0.062-1.801-0.080-5.272-0.080-3.472 0-3.917 0-5.274 0.080-1.063 0.022-2.113 0.222-3.106 0.594-1.723 0.678-3.062 2.015-3.727 3.693l-0.015 0.044c-0.357 0.919-0.574 1.982-0.595 3.093l-0 0.009c-0.062 1.367-0.080 1.799-0.080 5.265 0 3.465 0 3.909 0.080 5.265 0.021 1.062 0.222 2.11 0.594 3.104 0.682 1.721 2.022 3.057 3.701 3.719l0.044 0.015c0.917 0.37 1.979 0.602 3.091 0.64l0.016 0c1.369 0.061 1.802 0.079 5.274 0.079s3.917 0 5.274-0.080c1.122-0.023 2.187-0.239 3.172-0.616l-0.064 0.022c1.722-0.68 3.061-2.016 3.727-3.693l0.016-0.044c0.374-0.994 0.575-2.040 0.595-3.104 0.062-1.365 0.080-1.798 0.080-5.265-0.002-3.465-0.002-3.905-0.082-5.264zM15.989 22.531c-0.002 0-0.004 0-0.006 0-3.625 0-6.563-2.937-6.566-6.561v-0c0.002-3.624 2.94-6.561 6.565-6.561 0.002 0 0.005 0 0.007 0h-0c3.629 0 6.571 2.937 6.571 6.56-0.003 3.625-2.942 6.562-6.567 6.562-0.002 0-0.003 0-0.005 0h0zM22.823 10.696c-0.845 0-1.53-0.685-1.53-1.53s0.685-1.53 1.53-1.53v0c0.845 0 1.53 0.685 1.53 1.53s-0.685 1.53-1.53 1.53v0z"></path>
<path d="M15.992 19.977c2.212 0 4.005-1.793 4.005-4.005s-1.793-4.005-4.005-4.005v0c-2.182 0.038-3.937 1.816-3.937 4.004s1.755 3.966 3.933 4.004l0.004 0z"></path>
</symbol>
<symbol id="icon-logo" viewBox="0 0 28 32">
<path d="M21.073 16.002l-3.834-8.782-0.836-0.58-0.98-0.312-1.326-0.357-1.557 0.669-1.038 0.58 3.92 8.782h5.65z"></path>
<path d="M7.314 13.065l3.834 8.803 0.836 0.581 0.98 0.313 1.326 0.357 1.556-0.67 1.038-0.581-3.92-8.803h-5.651z"></path>
<path d="M11.297 7.335l-5.952 8.604 5.952 0.064 4.303-8.667c0.302-0.887 1.247-0.369 1.682 0-1.858-3.405-4.764-1.419-5.985 0zM17.066 21.756l5.952-8.604-5.952-0.064-4.303 8.667c-0.302 0.887-1.247 0.369-1.682 0 1.858 3.405 4.764 1.419 5.985 0z"></path>
</symbol>
<symbol id="icon-x" viewBox="0 0 32 32">
<path stroke-linejoin="round" stroke-linecap="round" stroke-miterlimit="4" stroke-width="2.0800" d="M24 8l-16 16M8 8l16 16"></path>
</symbol>
<symbol id="icon-youtube" viewBox="0 0 32 32">
<path d="M24.24 6c-1.36-0.080-4.16-0.16-8.4-0.16h-0.56c-4.080 0-6.8 0.080-8.16 0.24-1.84 0.16-3.12 0.64-3.84 1.28-0.64 0.56-1.12 1.6-1.28 2.96-0.080 0.88-0.16 2.72-0.16 5.52v0.4c0 2.64 0.080 4.48 0.24 5.36 0.24 1.28 0.64 2.24 1.44 2.8 0.8 0.64 2.16 1.040 4.080 1.2 1.36 0.080 4.16 0.16 8.4 0.16h0.56c4.080 0 6.8-0.080 8.16-0.24 1.84-0.16 3.12-0.64 3.84-1.28 0.64-0.56 1.12-1.6 1.28-2.96 0.080-0.88 0.16-2.72 0.16-5.52v-0.4c0-2.64-0.080-4.48-0.24-5.36-0.24-1.28-0.64-2.24-1.44-2.8-0.8-0.64-2.16-1.040-4.080-1.2zM21.12 15.84l-8.8 5.28v-10.56l8.8 5.28z"></path>
</symbol>
</defs>
</svg>