<svg xmlns="http://www.w3.org/2000/svg" width="24" height="24" fill="none">
  <path fill="#fff" fill-rule="evenodd" d="M18.18 4.5c-1.02-.06-3.12-.12-6.3-.12h-.42c-3.06 0-5.1.06-6.12.18-1.38.12-2.34.48-2.88.96-.48.42-.84 1.2-.96 2.22-.06.66-.12 2.04-.12 4.14v.3c0 1.98.06 3.36.18 4.02.18.96.48 1.68 1.08 2.1.6.48 1.62.78 3.06.9 1.02.06 3.12.12 6.3.12h.42c3.06 0 5.1-.06 6.12-.18 1.38-.12 2.34-.48 2.88-.96.48-.42.84-1.2.96-2.22.06-.66.12-2.04.12-4.14v-.3c0-1.98-.06-3.36-.18-4.02-.18-.96-.48-1.68-1.08-2.1-.6-.48-1.62-.78-3.06-.9Zm-2.34 7.38-6.6 3.96V7.92l6.6 3.96Z" clip-rule="evenodd" opacity=".8"/>
</svg>
