<svg xmlns="http://www.w3.org/2000/svg" aria-hidden="true" style="position:absolute;width:0;height:0;overflow:hidden">
    <defs>
        <symbol id="icon-x" viewBox="0 0 32 32">
            <path stroke-linecap="round" stroke-linejoin="round" stroke-width="2.08" d="M24 8 8 24M8 8l16 16" />
        </symbol>
        <symbol id="icon-chevron-left" viewBox="0 0 32 32">
            <path stroke-linecap="round" stroke-linejoin="round" stroke-width="1.778" d="m20 24-8-8 8-8" />
        </symbol>
        <symbol id="icon-chevron-right" viewBox="0 0 32 32">
            <path stroke-linecap="round" stroke-linejoin="round" stroke-width="1.778" d="m12 24 8-8-8-8" />
        </symbol>
        <symbol id="icon-gg_menu" viewBox="0 0 32 32">
            <path
                d="M2.667 7.993c0-.733.595-1.327 1.327-1.327h10.68a1.327 1.327 0 1 1 0 2.654H3.994a1.327 1.327 0 0 1-1.327-1.327zm0 8.007c0-.733.595-1.327 1.327-1.327h24.013a1.327 1.327 0 1 1 0 2.654H3.994A1.327 1.327 0 0 1 2.667 16zm1.326 6.68a1.327 1.327 0 1 0 0 2.654h16.013a1.327 1.327 0 1 0 0-2.654H3.993z" />
        </symbol>
        <symbol id="icon-heart" viewBox="0 0 32 32">
            <path stroke-linecap="round" stroke-linejoin="round" stroke-width="2.667"
                d="M27.787 6.147C26.46 4.819 24.626 3.998 22.6 3.998s-3.859.821-5.187 2.149L16 7.56l-1.413-1.413A7.335 7.335 0 0 0 4.213 16.521L16 28.308l11.787-11.787c1.328-1.327 2.15-3.161 2.15-5.187s-.822-3.86-2.15-5.187z" />
        </symbol>
        <symbol id="icon-youtube" viewBox="0 0 32 32">
            <path
                d="M24.24 6c-1.36-.08-4.16-.16-8.4-.16h-.56c-4.08 0-6.8.08-8.16.24-1.84.16-3.12.64-3.84 1.28-.64.56-1.12 1.6-1.28 2.96-.08.88-.16 2.72-.16 5.52v.4c0 2.64.08 4.48.24 5.36.24 1.28.64 2.24 1.44 2.8.8.64 2.16 1.04 4.08 1.2 1.36.08 4.16.16 8.4.16h.56c4.08 0 6.8-.08 8.16-.24 1.84-.16 3.12-.64 3.84-1.28.64-.56 1.12-1.6 1.28-2.96.08-.88.16-2.72.16-5.52v-.4c0-2.64-.08-4.48-.24-5.36-.24-1.28-.64-2.24-1.44-2.8-.8-.64-2.16-1.04-4.08-1.2zm-3.12 9.84-8.8 5.28V10.56l8.8 5.28z" />
        </symbol>
        <symbol id="icon-facebook" viewBox="0 0 32 32">
            <path
                d="M19.52 4.64h.96v3.6h-1.2c-.48 0-.96 0-1.2.24s-.24.48-.24 1.04v1.28h2.64v3.04h-2.64v13.2h-4.08V13.76H11.6v-3.04h2.16V9.68c0-1.76.24-3.04.72-3.6.72-1.04 2.16-1.52 4.32-1.52.24.08.48.08.72.08z" />
        </symbol>
        <symbol id="icon-instagram" viewBox="0 0 32 32">
            <path
                d="M28.718 10.755a9.225 9.225 0 0 0-.617-3.208l.021.063a6.588 6.588 0 0 0-3.7-3.722l-.044-.015a9.217 9.217 0 0 0-3.098-.594h-.01c-1.367-.062-1.801-.08-5.272-.08-3.472 0-3.917 0-5.274.08a9.406 9.406 0 0 0-3.106.594 6.58 6.58 0 0 0-3.727 3.693l-.015.044a9.09 9.09 0 0 0-.595 3.093v.009c-.062 1.367-.08 1.799-.08 5.265 0 3.465 0 3.909.08 5.265a9.379 9.379 0 0 0 .594 3.104 6.585 6.585 0 0 0 3.701 3.719l.044.015c.917.37 1.979.602 3.091.64h.016c1.369.061 1.802.079 5.274.079s3.917 0 5.274-.08a9.383 9.383 0 0 0 3.172-.616l-.064.022a6.594 6.594 0 0 0 3.727-3.693l.016-.044c.374-.994.575-2.04.595-3.104.062-1.365.08-1.798.08-5.265-.002-3.465-.002-3.905-.082-5.264zM15.989 22.531h-.006a6.566 6.566 0 0 1-6.566-6.561 6.564 6.564 0 0 1 6.565-6.561h.007c3.629 0 6.571 2.937 6.571 6.56a6.567 6.567 0 0 1-6.567 6.562h-.005zm6.834-11.835a1.53 1.53 0 1 1 0-3.06 1.53 1.53 0 1 1 0 3.06z" />
            <path d="M15.992 19.977a4.005 4.005 0 1 0 0-8.01 4.006 4.006 0 0 0-.004 8.008h.004z" />
        </symbol>
        <symbol id="icon-logo" viewBox="0 0 28 32">
            <path
                d="M21.073 16.002 17.239 7.22l-.836-.58-.98-.312-1.326-.357-1.557.669-1.038.58 3.92 8.782h5.65zM7.314 13.065l3.834 8.803.836.581.98.313 1.326.357 1.556-.67 1.038-.581-3.92-8.803H7.313z" />
            <path
                d="m11.297 7.335-5.952 8.604 5.952.064L15.6 7.336c.302-.887 1.247-.369 1.682 0-1.858-3.405-4.764-1.419-5.985 0zm5.769 14.421 5.952-8.604-5.952-.064-4.303 8.667c-.302.887-1.247.369-1.682 0 1.858 3.405 4.764 1.419 5.985 0z" />
        </symbol>
        <symbol id="icon-logo-cropped" viewBox="0 0 31 32">
            <path
                d="M27.673 18.563l-6.747-15.456-1.472-1.021-1.725-0.549-2.334-0.628-2.739 1.177-1.827 1.019 6.9 15.458h9.944z">
            </path>
            <path
                d="M3.458 13.395l6.749 15.495 1.47 1.022 1.725 0.549 2.334 0.63 2.74-1.179 1.826-1.022-6.9-15.495h-9.944z">
            </path>
            <path
                d="M10.469 3.309l-10.476 15.141 10.476 0.113 7.572-15.254c0.532-1.561 2.196-0.652 2.961 0-3.271-5.994-8.386-2.498-10.533 0zM20.621 28.691l10.476-15.141-10.476-0.113-7.572 15.254c-0.532 1.561-2.196 0.652-2.961 0 3.271 5.994 8.386 2.498 10.533 0z">
            </path>
        </symbol>
    </defs>
</svg>